<?xml version="1.0" encoding="UTF-8" standalone="no"?>
<!DOCTYPE svg PUBLIC "-//W3C//DTD SVG 1.1//EN"
 "http://www.w3.org/Graphics/SVG/1.1/DTD/svg11.dtd">
<!-- Generated by graphviz version 15.0.0 (20260523.1842)
 -->
<!-- Pages: 1 -->
<svg width="1159pt" height="154pt"
 viewBox="0.00 0.00 1159.00 154.00" xmlns="http://www.w3.org/2000/svg" xmlns:xlink="http://www.w3.org/1999/xlink">
<g id="graph0" class="graph" transform="scale(1 1) rotate(0) translate(4 150)">
<polygon fill="white" stroke="none" points="-4,4 -4,-150 1155.25,-150 1155.25,4 -4,4"/>
<!-- 4437178448 -->
<g id="node1" class="node">
<title>4437178448</title>
<polygon fill="none" stroke="black" points="322.5,-27.5 322.5,-63.5 516.75,-63.5 516.75,-27.5 322.5,-27.5"/>
<text xml:space="preserve" text-anchor="middle" x="334.62" y="-40.7" font-family="Times,serif" font-size="14.00">E</text>
<polyline fill="none" stroke="black" points="346.75,-28 346.75,-63.5"/>
<text xml:space="preserve" text-anchor="middle" x="388.88" y="-40.7" font-family="Times,serif" font-size="14.00">data &#45;6.0000</text>
<polyline fill="none" stroke="black" points="431,-28 431,-63.5"/>
<text xml:space="preserve" text-anchor="middle" x="473.88" y="-40.7" font-family="Times,serif" font-size="14.00">grad &#45;2.0000</text>
</g>
<!-- 4450220208+ -->
<g id="node4" class="node">
<title>4450220208+</title>
<ellipse fill="none" stroke="black" cx="581.25" cy="-72.5" rx="27" ry="18"/>
<text xml:space="preserve" text-anchor="middle" x="581.25" y="-67.45" font-family="Times,serif" font-size="14.00">+</text>
</g>
<!-- 4437178448&#45;&gt;4450220208+ -->
<g id="edge5" class="edge">
<title>4437178448&#45;&gt;4450220208+</title>
<path fill="none" stroke="black" d="M517.16,-61.83C526.43,-63.4 535.37,-64.91 543.48,-66.28"/>
<polygon fill="black" stroke="black" points="542.75,-69.71 553.19,-67.92 543.92,-62.8 542.75,-69.71"/>
</g>
<!-- 4437178448* -->
<g id="node2" class="node">
<title>4437178448*</title>
<ellipse fill="none" stroke="black" cx="258" cy="-45.5" rx="27" ry="18"/>
<text xml:space="preserve" text-anchor="middle" x="258" y="-40.45" font-family="Times,serif" font-size="14.00">*</text>
</g>
<!-- 4437178448*&#45;&gt;4437178448 -->
<g id="edge1" class="edge">
<title>4437178448*&#45;&gt;4437178448</title>
<path fill="none" stroke="black" d="M285.36,-45.5C292.85,-45.5 301.5,-45.5 310.73,-45.5"/>
<polygon fill="black" stroke="black" points="310.72,-49 320.72,-45.5 310.72,-42 310.72,-49"/>
</g>
<!-- 4450220208 -->
<g id="node3" class="node">
<title>4450220208</title>
<polygon fill="none" stroke="black" points="644.25,-54.5 644.25,-90.5 835.5,-90.5 835.5,-54.5 644.25,-54.5"/>
<text xml:space="preserve" text-anchor="middle" x="657.12" y="-67.7" font-family="Times,serif" font-size="14.00">D</text>
<polyline fill="none" stroke="black" points="670,-55 670,-90.5"/>
<text xml:space="preserve" text-anchor="middle" x="709.88" y="-67.7" font-family="Times,serif" font-size="14.00">data 4.0000</text>
<polyline fill="none" stroke="black" points="749.75,-55 749.75,-90.5"/>
<text xml:space="preserve" text-anchor="middle" x="792.62" y="-67.7" font-family="Times,serif" font-size="14.00">grad &#45;2.0000</text>
</g>
<!-- 4452870560* -->
<g id="node7" class="node">
<title>4452870560*</title>
<ellipse fill="none" stroke="black" cx="898.5" cy="-99.5" rx="27" ry="18"/>
<text xml:space="preserve" text-anchor="middle" x="898.5" y="-94.45" font-family="Times,serif" font-size="14.00">*</text>
</g>
<!-- 4450220208&#45;&gt;4452870560* -->
<g id="edge7" class="edge">
<title>4450220208&#45;&gt;4452870560*</title>
<path fill="none" stroke="black" d="M835.6,-88.83C844.41,-90.35 852.93,-91.82 860.69,-93.15"/>
<polygon fill="black" stroke="black" points="859.88,-96.57 870.33,-94.82 861.07,-89.67 859.88,-96.57"/>
</g>
<!-- 4450220208+&#45;&gt;4450220208 -->
<g id="edge2" class="edge">
<title>4450220208+&#45;&gt;4450220208</title>
<path fill="none" stroke="black" d="M608.47,-72.5C615.63,-72.5 623.86,-72.5 632.62,-72.5"/>
<polygon fill="black" stroke="black" points="632.46,-76 642.46,-72.5 632.46,-69 632.46,-76"/>
</g>
<!-- 4452870512 -->
<g id="node5" class="node">
<title>4452870512</title>
<polygon fill="none" stroke="black" points="645.38,-109.5 645.38,-145.5 834.38,-145.5 834.38,-109.5 645.38,-109.5"/>
<text xml:space="preserve" text-anchor="middle" x="657.12" y="-122.7" font-family="Times,serif" font-size="14.00">F</text>
<polyline fill="none" stroke="black" points="668.88,-110 668.88,-145.5"/>
<text xml:space="preserve" text-anchor="middle" x="711" y="-122.7" font-family="Times,serif" font-size="14.00">data &#45;2.0000</text>
<polyline fill="none" stroke="black" points="753.12,-110 753.12,-145.5"/>
<text xml:space="preserve" text-anchor="middle" x="793.75" y="-122.7" font-family="Times,serif" font-size="14.00">grad 4.0000</text>
</g>
<!-- 4452870512&#45;&gt;4452870560* -->
<g id="edge9" class="edge">
<title>4452870512&#45;&gt;4452870560*</title>
<path fill="none" stroke="black" d="M834.7,-110.73C843.89,-109.08 852.78,-107.49 860.85,-106.05"/>
<polygon fill="black" stroke="black" points="861.29,-109.53 870.52,-104.32 860.06,-102.64 861.29,-109.53"/>
</g>
<!-- 4452870560 -->
<g id="node6" class="node">
<title>4452870560</title>
<polygon fill="none" stroke="black" points="961.5,-81.5 961.5,-117.5 1151.25,-117.5 1151.25,-81.5 961.5,-81.5"/>
<text xml:space="preserve" text-anchor="middle" x="973.62" y="-94.7" font-family="Times,serif" font-size="14.00">L</text>
<polyline fill="none" stroke="black" points="985.75,-82 985.75,-117.5"/>
<text xml:space="preserve" text-anchor="middle" x="1027.88" y="-94.7" font-family="Times,serif" font-size="14.00">data &#45;8.0000</text>
<polyline fill="none" stroke="black" points="1070,-82 1070,-117.5"/>
<text xml:space="preserve" text-anchor="middle" x="1110.62" y="-94.7" font-family="Times,serif" font-size="14.00">grad 1.0000</text>
</g>
<!-- 4452870560*&#45;&gt;4452870560 -->
<g id="edge3" class="edge">
<title>4452870560*&#45;&gt;4452870560</title>
<path fill="none" stroke="black" d="M925.94,-99.5C933.09,-99.5 941.28,-99.5 949.99,-99.5"/>
<polygon fill="black" stroke="black" points="949.76,-103 959.76,-99.5 949.76,-96 949.76,-103"/>
</g>
<!-- 4346682288 -->
<g id="node8" class="node">
<title>4346682288</title>
<polygon fill="none" stroke="black" points="321,-82.5 321,-118.5 518.25,-118.5 518.25,-82.5 321,-82.5"/>
<text xml:space="preserve" text-anchor="middle" x="333.5" y="-95.7" font-family="Times,serif" font-size="14.00">C</text>
<polyline fill="none" stroke="black" points="346,-83 346,-118.5"/>
<text xml:space="preserve" text-anchor="middle" x="389.25" y="-95.7" font-family="Times,serif" font-size="14.00">data 10.0000</text>
<polyline fill="none" stroke="black" points="432.5,-83 432.5,-118.5"/>
<text xml:space="preserve" text-anchor="middle" x="475.38" y="-95.7" font-family="Times,serif" font-size="14.00">grad &#45;2.0000</text>
</g>
<!-- 4346682288&#45;&gt;4450220208+ -->
<g id="edge4" class="edge">
<title>4346682288&#45;&gt;4450220208+</title>
<path fill="none" stroke="black" d="M518.53,-83.33C527.36,-81.78 535.88,-80.28 543.62,-78.93"/>
<polygon fill="black" stroke="black" points="543.98,-82.42 553.22,-77.24 542.77,-75.52 543.98,-82.42"/>
</g>
<!-- 4346683344 -->
<g id="node9" class="node">
<title>4346683344</title>
<polygon fill="none" stroke="black" points="4.12,-55.5 4.12,-91.5 190.88,-91.5 190.88,-55.5 4.12,-55.5"/>
<text xml:space="preserve" text-anchor="middle" x="17" y="-68.7" font-family="Times,serif" font-size="14.00">A</text>
<polyline fill="none" stroke="black" points="29.88,-56 29.88,-91.5"/>
<text xml:space="preserve" text-anchor="middle" x="69.75" y="-68.7" font-family="Times,serif" font-size="14.00">data 2.0000</text>
<polyline fill="none" stroke="black" points="109.62,-56 109.62,-91.5"/>
<text xml:space="preserve" text-anchor="middle" x="150.25" y="-68.7" font-family="Times,serif" font-size="14.00">grad 6.0000</text>
</g>
<!-- 4346683344&#45;&gt;4437178448* -->
<g id="edge6" class="edge">
<title>4346683344&#45;&gt;4437178448*</title>
<path fill="none" stroke="black" d="M191.16,-57.13C201.43,-55.32 211.39,-53.56 220.32,-51.98"/>
<polygon fill="black" stroke="black" points="220.68,-55.47 229.92,-50.28 219.46,-48.58 220.68,-55.47"/>
</g>
<!-- 4346682336 -->
<g id="node10" class="node">
<title>4346682336</title>
<polygon fill="none" stroke="black" points="0,-0.5 0,-36.5 195,-36.5 195,-0.5 0,-0.5"/>
<text xml:space="preserve" text-anchor="middle" x="12.5" y="-13.7" font-family="Times,serif" font-size="14.00">B</text>
<polyline fill="none" stroke="black" points="25,-1 25,-36.5"/>
<text xml:space="preserve" text-anchor="middle" x="67.12" y="-13.7" font-family="Times,serif" font-size="14.00">data &#45;3.0000</text>
<polyline fill="none" stroke="black" points="109.25,-1 109.25,-36.5"/>
<text xml:space="preserve" text-anchor="middle" x="152.12" y="-13.7" font-family="Times,serif" font-size="14.00">grad &#45;4.0000</text>
</g>
<!-- 4346682336&#45;&gt;4437178448* -->
<g id="edge8" class="edge">
<title>4346682336&#45;&gt;4437178448*</title>
<path fill="none" stroke="black" d="M195.27,-34.98C204.08,-36.49 212.6,-37.94 220.34,-39.25"/>
<polygon fill="black" stroke="black" points="219.49,-42.66 229.94,-40.89 220.67,-35.76 219.49,-42.66"/>
</g>
</g>
</svg>
